<svg xmlns="http://www.w3.org/2000/svg" xmlns:xlink="http://www.w3.org/1999/xlink" width="500" zoomAndPan="magnify" viewBox="0 0 375 374.999991" height="500" preserveAspectRatio="xMidYMid meet" version="1.0"><defs><clipPath id="daeba6de0c"><path d="M 62.070312 62.070312 L 312.570312 62.070312 L 312.570312 312.570312 L 62.070312 312.570312 Z M 62.070312 62.070312 " clip-rule="nonzero"/></clipPath><clipPath id="5850760332"><path d="M 104 253 L 271 253 L 271 312.570312 L 104 312.570312 Z M 104 253 " clip-rule="nonzero"/></clipPath></defs><g clip-path="url(#daeba6de0c)"><path fill="#ffcc66" d="M 312.570312 187.320312 C 312.570312 256.496094 256.492188 312.570312 187.324219 312.570312 C 118.140625 312.570312 62.070312 256.496094 62.070312 187.320312 C 62.070312 118.140625 118.140625 62.066406 187.324219 62.066406 C 256.492188 62.066406 312.570312 118.140625 312.570312 187.320312 Z M 312.570312 187.320312 " fill-opacity="1" fill-rule="nonzero"/></g><path fill="#f8c7b0" d="M 241.445312 196.074219 C 241.289062 196.125 241.148438 196.160156 240.992188 196.195312 C 234.394531 218.003906 220.136719 234.800781 202.511719 240.996094 L 202.511719 257.570312 L 172.542969 257.570312 L 172.542969 241.042969 C 154.84375 234.886719 140.511719 218.046875 133.902344 196.164062 C 133.804688 196.136719 133.707031 196.113281 133.609375 196.078125 C 116.824219 191.015625 115.816406 171.394531 119.882812 165.117188 C 123.628906 159.351562 129.304688 161.746094 130.183594 162.167969 C 144.109375 125.945312 157.929688 117.179688 187.945312 117.179688 C 217.988281 117.179688 233.035156 122.816406 244.738281 162.261719 C 244.742188 162.234375 244.75 162.230469 244.75 162.230469 C 244.75 162.230469 251.105469 158.847656 255.171875 165.117188 C 259.242188 171.390625 258.238281 191.015625 241.445312 196.074219 Z M 241.445312 196.074219 " fill-opacity="1" fill-rule="nonzero"/><path fill="#f8b3b0" d="M 191.097656 240.773438 C 201.070312 240.773438 210.421875 237.4375 218.589844 231.644531 C 209.609375 239.175781 198.941406 243.585938 187.457031 243.585938 C 183.96875 243.585938 180.558594 243.171875 177.242188 242.398438 L 177.242188 258.824219 L 172.542969 257.570312 L 172.542969 241.042969 C 154.84375 234.886719 140.515625 218.046875 133.902344 196.164062 C 133.804688 196.136719 133.707031 196.113281 133.609375 196.078125 C 116.828125 191.015625 115.820312 171.394531 119.882812 165.117188 C 121.105469 163.230469 122.542969 162.230469 123.945312 161.734375 C 123.800781 161.917969 123.699219 162.125 123.53125 162.304688 C 117.042969 168.917969 117.164062 188.21875 137.257812 193.261719 C 137.355469 193.296875 137.453125 193.316406 137.550781 193.34375 C 145.9375 221.109375 166.746094 240.773438 191.097656 240.773438 Z M 122.59375 172.78125 C 120.898438 177.8125 126.132812 186.8125 131.703125 189.535156 C 131.703125 189.535156 129.941406 182.332031 129.941406 170.664062 C 129.941406 170.664062 124.289062 167.746094 122.59375 172.78125 Z M 252.464844 172.78125 C 250.765625 167.746094 245.117188 170.664062 245.117188 170.664062 C 245.117188 182.328125 243.359375 189.53125 243.359375 189.53125 C 248.929688 186.8125 254.15625 177.8125 252.464844 172.78125 Z M 252.464844 172.78125 " fill-opacity="1" fill-rule="nonzero"/><g clip-path="url(#5850760332)"><path fill="#ff6633" d="M 193.515625 312.414062 C 191.457031 312.507812 189.394531 312.570312 187.316406 312.570312 C 185.238281 312.570312 183.179688 312.511719 181.125 312.414062 C 180.394531 312.378906 179.683594 312.308594 178.960938 312.261719 C 177.65625 312.175781 176.34375 312.085938 175.046875 311.964844 C 174.132812 311.875 173.230469 311.753906 172.324219 311.648438 C 171.242188 311.519531 170.15625 311.390625 169.085938 311.234375 C 168.0625 311.082031 167.046875 310.90625 166.035156 310.734375 C 165.105469 310.578125 164.179688 310.414062 163.261719 310.238281 C 162.140625 310.023438 161.035156 309.78125 159.929688 309.535156 C 159.148438 309.351562 158.371094 309.175781 157.589844 308.992188 C 156.375 308.695312 155.171875 308.375 153.96875 308.042969 C 153.34375 307.878906 152.730469 307.695312 152.109375 307.515625 C 150.785156 307.125 149.46875 306.722656 148.15625 306.292969 C 147.726562 306.148438 147.300781 306.003906 146.867188 305.847656 C 145.398438 305.347656 143.933594 304.832031 142.492188 304.269531 C 142.300781 304.203125 142.117188 304.128906 141.929688 304.050781 C 128.105469 298.660156 115.472656 290.882812 104.53125 281.226562 C 121.867188 268.765625 168.894531 254.03125 186.699219 253.609375 L 186.699219 253.582031 C 186.890625 253.582031 187.117188 253.59375 187.3125 253.59375 L 187.324219 253.59375 C 187.519531 253.59375 187.746094 253.582031 187.929688 253.582031 L 187.929688 253.609375 C 205.742188 254.03125 252.765625 268.765625 270.101562 281.226562 C 259.175781 290.867188 246.5625 298.632812 232.765625 304.03125 C 232.546875 304.113281 232.324219 304.203125 232.109375 304.289062 C 230.695312 304.832031 229.257812 305.339844 227.816406 305.832031 C 227.359375 305.996094 226.902344 306.148438 226.4375 306.304688 C 225.15625 306.726562 223.859375 307.121094 222.554688 307.503906 C 221.910156 307.6875 221.265625 307.878906 220.617188 308.058594 C 219.441406 308.378906 218.257812 308.6875 217.070312 308.980469 C 216.265625 309.167969 215.460938 309.355469 214.65625 309.535156 C 213.574219 309.773438 212.488281 310.015625 211.394531 310.226562 C 210.449219 310.410156 209.492188 310.578125 208.539062 310.734375 C 207.546875 310.910156 206.558594 311.074219 205.566406 311.226562 C 204.460938 311.386719 203.351562 311.515625 202.246094 311.652344 C 201.367188 311.75 200.484375 311.871094 199.597656 311.960938 C 198.273438 312.085938 196.9375 312.171875 195.59375 312.261719 C 194.90625 312.3125 194.214844 312.378906 193.515625 312.414062 Z M 193.515625 312.414062 " fill-opacity="1" fill-rule="nonzero"/></g><path fill="#371516" d="M 263.855469 277.324219 C 248.183594 268.566406 221.394531 259.550781 202.511719 255.628906 L 202.511719 240.996094 C 220.132812 234.800781 234.394531 218.003906 240.988281 196.195312 C 241.144531 196.160156 241.289062 196.125 241.445312 196.074219 C 252.3125 192.796875 256.5625 183.425781 257.109375 175.515625 C 259.640625 202.207031 291.929688 249.347656 263.855469 277.324219 Z M 111.355469 277.003906 C 127.21875 268.28125 153.867188 259.367188 172.542969 255.542969 L 172.542969 241.042969 C 154.84375 234.882812 140.511719 218.046875 133.902344 196.160156 C 133.804688 196.132812 133.707031 196.113281 133.609375 196.074219 C 116.824219 191.015625 115.816406 171.390625 119.882812 165.117188 C 123.628906 159.347656 129.304688 161.746094 130.183594 162.164062 C 144.109375 125.945312 157.929688 117.179688 187.945312 117.179688 C 217.988281 117.179688 233.035156 122.816406 244.738281 162.261719 C 244.742188 162.234375 244.75 162.230469 244.75 162.230469 C 244.75 162.230469 251.105469 158.847656 255.171875 165.117188 C 256.019531 166.417969 256.640625 168.300781 256.949219 170.507812 C 257.152344 141.59375 267.535156 107.785156 230.992188 96.421875 C 222.101562 93.660156 212.128906 93.660156 204.871094 94.3125 C 194.960938 89.730469 172.636719 77.453125 148.808594 88.40625 C 117.207031 102.9375 117.988281 143.425781 117.605469 172.8125 C 117.257812 199.417969 76.667969 249.839844 111.355469 277.003906 Z M 170.855469 178.46875 C 170.855469 175.195312 168.199219 172.542969 164.929688 172.542969 C 161.65625 172.542969 159 175.195312 159 178.46875 L 159 186.148438 C 159 189.421875 161.65625 192.074219 164.929688 192.074219 C 168.203125 192.074219 170.855469 189.421875 170.855469 186.148438 Z M 165.96875 172.679688 C 165.824219 172.652344 165.757812 172.648438 165.65625 172.632812 L 165.394531 172.613281 C 165.226562 172.597656 165.058594 172.589844 164.894531 172.585938 C 164.5625 172.574219 164.234375 172.578125 163.90625 172.585938 C 163.253906 172.613281 162.601562 172.675781 161.949219 172.796875 C 161.296875 172.910156 160.640625 173.082031 160 173.335938 C 159.679688 173.460938 159.363281 173.605469 159.054688 173.773438 C 158.902344 173.859375 158.75 173.949219 158.605469 174.046875 L 158.386719 174.195312 L 158.375 174.203125 C 158.390625 174.195312 158.347656 174.214844 158.402344 174.1875 L 158.390625 174.199219 L 158.367188 174.214844 L 158.328125 174.246094 L 158.246094 174.308594 C 157.617188 174.859375 156.855469 175.246094 155.925781 175.25 C 154.996094 175.261719 153.957031 174.867188 152.984375 174.386719 C 153.664062 175.230469 154.417969 176.089844 155.558594 176.652344 C 156.121094 176.929688 156.777344 177.105469 157.449219 177.148438 C 158.128906 177.191406 158.792969 177.113281 159.460938 176.945312 L 159.558594 176.925781 L 159.609375 176.914062 L 159.636719 176.910156 L 159.648438 176.90625 L 159.652344 176.90625 C 159.703125 176.878906 159.667969 176.898438 159.679688 176.894531 L 159.683594 176.894531 L 159.828125 176.875 C 159.925781 176.867188 160.019531 176.859375 160.117188 176.859375 C 160.316406 176.855469 160.511719 176.863281 160.714844 176.882812 C 161.117188 176.925781 161.527344 177.011719 161.941406 177.132812 C 162.351562 177.253906 162.761719 177.40625 163.164062 177.589844 C 163.363281 177.679688 163.558594 177.777344 163.75 177.878906 C 163.84375 177.929688 163.933594 177.980469 164.023438 178.035156 L 164.144531 178.113281 C 164.179688 178.136719 164.238281 178.171875 164.21875 178.179688 Z M 132.472656 135.402344 C 124.71875 153.152344 133.308594 172.019531 133.308594 172.019531 C 137.296875 157.332031 174.425781 139.054688 174.425781 139.054688 C 166.09375 146.425781 167.363281 152.292969 167.363281 152.292969 C 205.773438 146.449219 214.984375 116.335938 214.984375 116.335938 C 181.402344 88.328125 140.222656 117.652344 132.472656 135.402344 Z M 209.746094 115.851562 C 209.746094 115.851562 229.105469 154.925781 242.742188 172.109375 C 242.742188 172.109375 265.855469 116.355469 209.746094 115.851562 Z M 147.324219 167.871094 C 148.734375 166.164062 150.394531 164.671875 152.203125 163.476562 C 153.984375 162.242188 155.925781 161.289062 157.945312 160.683594 C 159.976562 160.050781 162.066406 160.042969 164.113281 159.726562 C 166.1875 159.421875 168.308594 159.316406 170.664062 158.980469 L 170.734375 158.679688 C 168.734375 157.339844 166.371094 156.730469 163.972656 156.632812 C 161.550781 156.511719 159.203125 157.402344 157.058594 158.371094 C 154.898438 159.363281 152.933594 160.703125 151.230469 162.269531 C 149.570312 163.886719 148.097656 165.667969 147.058594 167.710938 Z M 216.417969 178.46875 C 216.417969 175.195312 213.761719 172.542969 210.488281 172.542969 C 207.21875 172.542969 204.566406 175.195312 204.566406 178.46875 L 204.566406 186.148438 C 204.566406 189.421875 207.21875 192.074219 210.488281 192.074219 C 213.761719 192.074219 216.417969 189.421875 216.417969 186.148438 Z M 211.203125 178.183594 C 211.183594 178.175781 211.242188 178.140625 211.273438 178.117188 L 211.398438 178.039062 C 211.484375 177.984375 211.578125 177.929688 211.671875 177.882812 C 211.859375 177.777344 212.058594 177.683594 212.257812 177.59375 C 212.660156 177.410156 213.070312 177.257812 213.484375 177.136719 C 213.894531 177.015625 214.304688 176.925781 214.707031 176.886719 C 214.910156 176.867188 215.105469 176.855469 215.304688 176.859375 C 215.402344 176.863281 215.496094 176.867188 215.59375 176.878906 L 215.738281 176.894531 L 215.746094 176.894531 C 215.800781 176.917969 215.761719 176.902344 215.773438 176.90625 L 215.785156 176.910156 L 215.8125 176.914062 L 215.863281 176.929688 L 215.960938 176.949219 C 216.628906 177.113281 217.292969 177.191406 217.972656 177.148438 C 218.648438 177.109375 219.304688 176.933594 219.867188 176.652344 C 221.007812 176.09375 221.761719 175.234375 222.4375 174.390625 C 221.46875 174.867188 220.429688 175.261719 219.496094 175.25 C 218.566406 175.25 217.804688 174.859375 217.175781 174.308594 L 217.09375 174.246094 L 217.054688 174.21875 L 217.035156 174.203125 L 217.023438 174.191406 C 217.035156 174.199219 216.996094 174.179688 217.046875 174.203125 L 217.042969 174.203125 L 217.035156 174.195312 L 216.816406 174.046875 C 216.671875 173.949219 216.519531 173.859375 216.367188 173.777344 C 216.058594 173.605469 215.742188 173.460938 215.421875 173.335938 C 214.777344 173.085938 214.125 172.914062 213.472656 172.796875 C 212.820312 172.675781 212.167969 172.613281 211.511719 172.589844 C 211.1875 172.578125 210.859375 172.574219 210.527344 172.585938 C 210.363281 172.589844 210.195312 172.597656 210.027344 172.613281 L 209.765625 172.636719 C 209.667969 172.648438 209.597656 172.652344 209.453125 172.679688 Z M 228.355469 167.710938 C 227.320312 165.671875 225.847656 163.886719 224.1875 162.269531 C 222.484375 160.703125 220.519531 159.363281 218.359375 158.371094 C 216.214844 157.402344 213.867188 156.511719 211.445312 156.632812 C 209.046875 156.730469 206.683594 157.339844 204.683594 158.679688 L 204.757812 158.980469 C 207.109375 159.316406 209.234375 159.421875 211.308594 159.726562 C 213.351562 160.039062 215.441406 160.050781 217.476562 160.683594 C 219.496094 161.289062 221.4375 162.242188 223.21875 163.476562 C 225.027344 164.671875 226.6875 166.164062 228.09375 167.871094 Z M 228.355469 167.710938 " fill-opacity="1" fill-rule="nonzero"/><path fill="#ffffff" d="M 202.105469 213.621094 C 202.105469 220.390625 195.574219 225.894531 187.53125 225.894531 C 179.476562 225.894531 172.945312 220.390625 172.945312 213.621094 Z M 187.527344 253.582031 C 187.527344 253.582031 181.472656 254.128906 172.542969 249.542969 L 163.691406 257.578125 L 174.894531 271.269531 Z M 199.746094 271.269531 L 210.945312 257.578125 L 202.097656 249.542969 C 193.164062 254.125 187.113281 253.582031 187.113281 253.582031 Z M 162.085938 176.019531 C 160.761719 176.019531 159.683594 177.425781 159.683594 179.164062 C 159.683594 180.898438 160.761719 182.308594 162.085938 182.308594 C 163.414062 182.308594 164.484375 180.898438 164.484375 179.164062 C 164.488281 177.425781 163.414062 176.019531 162.085938 176.019531 Z M 207.648438 176.019531 C 206.320312 176.019531 205.25 177.425781 205.25 179.164062 C 205.25 180.898438 206.320312 182.308594 207.648438 182.308594 C 208.972656 182.308594 210.046875 180.898438 210.046875 179.164062 C 210.046875 177.425781 208.972656 176.019531 207.648438 176.019531 Z M 207.648438 176.019531 " fill-opacity="1" fill-rule="nonzero"/></svg>