<?xml version="1.0" encoding="UTF-8"?>
<svg version="1.1" xmlns="http://www.w3.org/2000/svg" width="500" height="500">
<path d="M0 0 C3.16910166 2.86960611 6.25612792 5.8158849 9.328125 8.7890625 C10.07449219 9.49546875 10.82085937 10.201875 11.58984375 10.9296875 C41.70490217 40.03893847 61.08287218 81.76282966 67.328125 122.7890625 C67.49948975 123.83441162 67.49948975 123.83441162 67.67431641 124.90087891 C75.9792679 176.90833069 62.14250966 230.97638861 31.95849609 273.72900391 C27.14691458 280.35369726 21.89805655 286.56504739 16.34765625 292.58203125 C14.58907593 294.50388402 12.91992725 296.46553739 11.265625 298.4765625 C7.96887252 302.33924252 4.20877365 305.52878965 0.328125 308.7890625 C-0.93257813 309.89894531 -0.93257813 309.89894531 -2.21875 311.03125 C-39.0900251 342.9116619 -86.66736806 360.05953575 -135.234375 359.9765625 C-135.99564697 359.97529358 -136.75691895 359.97402466 -137.54125977 359.97271729 C-148.35792655 359.93828561 -159.01674337 359.89286853 -169.671875 357.7890625 C-171.08412354 357.51449219 -171.08412354 357.51449219 -172.52490234 357.234375 C-213.66399771 348.9925652 -249.34911005 330.78629825 -279.671875 301.7890625 C-280.59871094 300.91507812 -281.52554688 300.04109375 -282.48046875 299.140625 C-315.25442173 267.43589318 -336.35785684 222.05824007 -340.671875 176.7890625 C-340.78144531 175.644375 -340.89101563 174.4996875 -341.00390625 173.3203125 C-341.31177987 169.47804968 -341.52600519 165.64020566 -341.671875 161.7890625 C-341.70055664 161.05478027 -341.72923828 160.32049805 -341.75878906 159.56396484 C-343.40289129 110.00156656 -326.03611542 57.86152287 -292.484375 20.9140625 C-291.23527344 19.58568359 -291.23527344 19.58568359 -289.9609375 18.23046875 C-288.01460238 16.15459938 -286.18045047 14.03595599 -284.359375 11.8515625 C-251.62512877 -25.42910682 -199.51654636 -47.40564885 -150.71484375 -50.93359375 C-95.61809639 -54.23665483 -41.44133426 -36.73925019 0 0 Z M-186.625 57.9375 C-198.47784669 72.21245014 -203.26789805 90.46510161 -201.671875 108.7890625 C-199.81334788 123.85576291 -192.56714985 137.36341156 -181.671875 147.7890625 C-180.98609375 148.49417969 -180.3003125 149.19929688 -179.59375 149.92578125 C-167.64711438 161.54056588 -151.09964811 166.77047905 -134.671875 166.7890625 C-115.03014533 165.64951067 -97.77197827 157.49116916 -84.671875 142.7890625 C-73.73309412 128.23415571 -67.94908911 110.95311018 -70.3605957 92.79174805 C-73.08420172 75.92175727 -80.73748803 59.63342851 -94.234375 48.7265625 C-106.80623384 39.80931379 -120.2059419 35.19681719 -135.609375 35.4140625 C-136.66697021 35.42566406 -137.72456543 35.43726563 -138.81420898 35.44921875 C-158.2158602 35.85663395 -173.59402115 43.60342327 -186.625 57.9375 Z M-193.93554688 163.19970703 C-194.9187793 163.61518799 -194.9187793 163.61518799 -195.921875 164.0390625 C-196.61861328 164.31991699 -197.31535156 164.60077148 -198.03320312 164.89013672 C-221.88509223 174.78579313 -250.85517399 192.39278935 -261.171875 217.2265625 C-265.01921104 227.75330139 -264.48370399 238.30314148 -260.671875 248.7890625 C-254.78051805 260.74739951 -246.11307169 268.22402497 -233.671875 272.7890625 C-229.88508294 274.01895226 -226.11149526 273.9372596 -222.17236328 273.93623352 C-221.03450048 273.94174855 -221.03450048 273.94174855 -219.87365055 273.947375 C-217.32982267 273.95839454 -214.78603566 273.96225279 -212.2421875 273.96606445 C-210.41872529 273.97233058 -208.59526435 273.97897751 -206.77180481 273.98597717 C-200.78017057 274.00700808 -194.7885361 274.01738092 -188.796875 274.02734375 C-186.73178087 274.03139213 -184.66668687 274.03550908 -182.60159302 274.03969383 C-172.89569628 274.05874598 -163.18980714 274.0729751 -153.4838953 274.0813058 C-142.29498571 274.0910687 -131.10627444 274.11736343 -119.91743469 274.15780669 C-111.26076087 274.18801859 -102.60414371 274.20277962 -93.94741821 274.20608681 C-88.78152667 274.20843215 -83.615847 274.2173248 -78.45001221 274.24254799 C-73.58425992 274.26592154 -68.71885758 274.27002475 -63.85306358 274.25978661 C-62.07460042 274.25929333 -60.29611949 274.26555174 -58.51770973 274.27934265 C-44.91904033 274.37882893 -33.25428582 273.25623096 -22.671875 263.7890625 C-21.805625 263.0259375 -20.939375 262.2628125 -20.046875 261.4765625 C-10.91552838 251.1437229 -7.8525123 241.64628479 -8.33203125 227.9453125 C-9.34850893 211.9421194 -21.31848054 199.97729492 -32.671875 189.7890625 C-43.61701606 180.31691239 -55.88618773 172.7062812 -69.109375 166.8515625 C-69.74721924 166.56901611 -70.38506348 166.28646973 -71.04223633 165.99536133 C-72.90295119 165.20559286 -74.77341932 164.48290314 -76.671875 163.7890625 C-77.6760144 163.40488159 -77.6760144 163.40488159 -78.70043945 163.01293945 C-82.53502177 161.76093348 -84.2540982 161.58294584 -87.91015625 163.38671875 C-88.92464844 164.20011719 -89.93914062 165.01351562 -90.984375 165.8515625 C-92.10843304 166.70563742 -93.23741509 167.55326842 -94.37109375 168.39453125 C-95.20326416 169.01593994 -95.20326416 169.01593994 -96.05224609 169.64990234 C-110.69875905 179.95147446 -131.45179437 181.71478978 -148.7578125 179.29296875 C-162.27758136 176.82595938 -175.14233142 171.38450077 -186.06640625 162.9375 C-189.20383213 161.55458664 -190.78355801 162.0090835 -193.93554688 163.19970703 Z " fill="#90A3AE" transform="translate(385.671875,95.2109375)"/>
<path d="M0 0 C2.31 0.33 4.62 0.66 7 1 C7 1.66 7 2.32 7 3 C4.36 3 1.72 3 -1 3 C-0.67 2.01 -0.34 1.02 0 0 Z " fill="#9AA9B1" transform="translate(270,451)"/>
</svg>
