<?xml version="1.0" encoding="UTF-8"?>
<svg version="1.1" xmlns="http://www.w3.org/2000/svg" width="500" height="500">
<path d="M0 0 C0.68991028 0.00126892 1.37982056 0.00253784 2.09063721 0.00384521 C34.2647253 0.11661249 64.59440664 7.97755322 92.9375 23.1875 C94.67386719 24.09242187 94.67386719 24.09242187 96.4453125 25.015625 C111.57051577 33.2156213 124.61761863 44.2735746 136.9375 56.1875 C137.61039062 56.82042969 138.28328125 57.45335937 138.9765625 58.10546875 C172.07407905 89.9183785 191.65077776 138.76061049 192.9375 184.1875 C192.95796387 184.83783203 192.97842773 185.48816406 192.99951172 186.15820312 C194.27565983 232.35265541 179.55916424 279.15467475 148.9375 314.1875 C148.00129668 315.31424308 147.06786533 316.44329317 146.13671875 317.57421875 C114.74177826 355.43873188 68.12306866 378.85168685 19.33154297 383.67016602 C-14.574987 386.51124463 -48.01406302 381.15862431 -79.0625 367.1875 C-79.7627832 366.87586914 -80.46306641 366.56423828 -81.18457031 366.24316406 C-96.81560473 359.17892326 -111.1805215 349.48495399 -124.0625 338.1875 C-124.91070312 337.44886719 -125.75890625 336.71023438 -126.6328125 335.94921875 C-129.14181052 333.72794986 -131.61052617 331.47147562 -134.0625 329.1875 C-134.80113281 328.50300781 -135.53976563 327.81851562 -136.30078125 327.11328125 C-142.95919498 320.7150542 -148.53152613 313.55476604 -154.0625 306.1875 C-154.69027344 305.35476563 -155.31804687 304.52203125 -155.96484375 303.6640625 C-173.00672658 280.16631347 -184.13628778 252.76605564 -189.0625 224.1875 C-189.26746094 223.01703125 -189.47242188 221.8465625 -189.68359375 220.640625 C-196.94766162 170.74399329 -184.52750707 119.98331958 -155.0625 79.1875 C-149.81458862 72.15764856 -144.06486492 65.57997431 -138.0625 59.1875 C-137.54864746 58.63433105 -137.03479492 58.08116211 -136.50537109 57.51123047 C-101.45056619 20.05359839 -50.99845574 -0.0964575 0 0 Z M-86.0625 35.1875 C-86.68576172 35.52475098 -87.30902344 35.86200195 -87.95117188 36.20947266 C-110.67257614 48.6636867 -131.49475902 67.79194482 -146.0625 89.1875 C-146.46194824 89.76967285 -146.86139648 90.3518457 -147.27294922 90.95166016 C-173.06644989 128.97423199 -184.15803115 176.73395953 -176.0625 222.1875 C-171.10653235 247.83871717 -161.85905252 271.60094249 -147.0625 293.1875 C-145.72456276 295.18446365 -144.39378272 297.18608844 -143.0625 299.1875 C-139.8403752 297.80058541 -138.02895599 296.26313327 -135.8125 293.5625 C-119.43297196 274.4243146 -96.23896694 261.765584 -70.96871185 259.38648033 C-65.47664916 259.01045391 -59.98420119 259.04021291 -54.48144531 259.04223633 C-53.14309598 259.03923735 -51.80474751 259.03583314 -50.46640015 259.03205872 C-46.85872465 259.02328936 -43.25107292 259.0208836 -39.64338779 259.02024293 C-37.38150605 259.01952837 -35.11963021 259.01738641 -32.85774994 259.01474571 C-24.94422528 259.00551546 -17.03071737 259.00140788 -9.1171875 259.00219727 C-1.77704954 259.00279734 5.56301477 258.99225334 12.90313411 258.9764536 C19.23556507 258.96331574 25.56797215 258.95801598 31.90041661 258.95865268 C35.66893567 258.95890584 39.43738917 258.95615597 43.20589447 258.94547462 C46.75514599 258.93568778 50.30427069 258.93578571 53.85352707 258.94299126 C55.75203833 258.94451059 57.65054988 258.93626489 59.54904175 258.92755127 C70.88775774 258.96834225 82.12301302 260.05215907 92.875 263.8125 C93.6280542 264.07192383 94.3811084 264.33134766 95.15698242 264.59863281 C111.92493313 270.60622193 133.59731373 282.50712745 141.9375 299.1875 C146.53488279 297.70073171 148.34155491 293.91861754 150.6875 290 C151.34274658 288.92141724 151.34274658 288.92141724 152.01123047 287.82104492 C153.3363165 285.61908501 154.64035262 283.40601388 155.9375 281.1875 C156.48809082 280.25550781 156.48809082 280.25550781 157.04980469 279.3046875 C180.61098427 238.9775413 185.34791785 189.75884533 173.69238281 144.91894531 C169.92295499 131.27976083 164.67287817 118.60892771 157.9375 106.1875 C157.46425293 105.28741211 157.46425293 105.28741211 156.98144531 104.36914062 C149.39479483 89.9505738 139.13193934 77.92123349 127.9375 66.1875 C127.12667969 65.32382813 126.31585938 64.46015625 125.48046875 63.5703125 C94.5499429 31.49051025 48.74102137 13.68019298 4.60229492 12.83422852 C-27.64815094 12.63969855 -57.72979317 19.6916888 -86.0625 35.1875 Z " fill="#93A6B0" transform="translate(249.0625,57.8125)"/>
<path d="M0 0 C1.70320665 1.48214148 3.39210868 2.980971 5.0625 4.5 C5.75601563 5.10070312 6.44953125 5.70140625 7.1640625 6.3203125 C23.94902756 21.76783015 32.99882857 45.5864274 34.08984375 68.078125 C33.88338501 93.91496164 24.6129599 116.5935806 6.625 135.3125 C-10.24408411 151.42798241 -33.39686335 160.61591801 -56.65625 160.53515625 C-81.8568779 159.94169089 -105.04256522 150.05791407 -122.5703125 131.75 C-139.58683049 112.18360622 -147.46892438 88.45113098 -146.10595703 62.64599609 C-144.27401488 39.30864602 -132.41719157 16.94158529 -114.75 1.6875 C-81.8609394 -25.39818832 -33.60319104 -26.88255283 0 0 Z " fill="#91A4AF" transform="translate(305.9375,146.5)"/>
<path d="M0 0 C2.31 1.65 4.62 3.3 7 5 C2.26823643 6.18294089 0.18142005 6.30699037 -4 4 C-3 2 -3 2 0 0 Z " fill="#A1B0BA" transform="translate(303,145)"/>
<path d="M0 0 C0.33 1.32 0.66 2.64 1 4 C0.01 4.495 0.01 4.495 -1 5 C-1.33 5.99 -1.66 6.98 -2 8 C-2.66 8 -3.32 8 -4 8 C-4 9.32 -4 10.64 -4 12 C-5.32 12 -6.64 12 -8 12 C-6.42527704 7.53828494 -4.40622971 2.20311486 0 0 Z " fill="#A4B2BA" transform="translate(94,139)"/>
<path d="M0 0 C3.94727588 -0.17942163 6.5980513 -0.09350689 10 2 C9.01 2.33 8.02 2.66 7 3 C7 3.66 7 4.32 7 5 C7.99 4.67 8.98 4.34 10 4 C10 5.32 10 6.64 10 8 C6.01618925 5.83735988 3.11016455 3.28788824 0 0 Z " fill="#A8B5BB" transform="translate(187,281)"/>
<path d="M0 0 C4.13937592 3.30015998 7.58662205 6.17324411 10 11 C9.01 11 8.02 11 7 11 C6.34 10.34 5.68 9.68 5 9 C4.319375 8.773125 3.63875 8.54625 2.9375 8.3125 C1 7 1 7 0.25 3.375 C0.1675 2.26125 0.085 1.1475 0 0 Z " fill="#AFBEC5" transform="translate(378,342)"/>
<path d="M0 0 C2 3.75 2 3.75 2 6 C2.99 5.67 3.98 5.34 5 5 C4.67 6.32 4.34 7.64 4 9 C5.32 9 6.64 9 8 9 C7.34 10.32 6.68 11.64 6 13 C3.36 9.7 0.72 6.4 -2 3 C-1.34 2.01 -0.68 1.02 0 0 Z " fill="#ABBAC0" transform="translate(180,268)"/>
<path d="M0 0 C-0.56959153 3.62613199 -1.92374534 5.25517741 -4.5625 7.75 C-5.52349609 8.67039062 -5.52349609 8.67039062 -6.50390625 9.609375 C-6.99761719 10.06828125 -7.49132812 10.5271875 -8 11 C-8.66 10.01 -9.32 9.02 -10 8 C-9.01 8 -8.02 8 -7 8 C-6.9175 7.4225 -6.835 6.845 -6.75 6.25 C-5.66186883 2.98560649 -3.65852651 0 0 0 Z " fill="#B9C2C8" transform="translate(132,113)"/>
<path d="M0 0 C2.125 0.9375 2.125 0.9375 4 2 C4 2.66 4 3.32 4 4 C4.99 4.33 5.98 4.66 7 5 C7 5.99 7 6.98 7 8 C3.18315774 6.44499019 0.80804268 3.96404505 -2 1 C-1.34 0.67 -0.68 0.34 0 0 Z " fill="#AAB9C1" transform="translate(128,395)"/>
<path d="M0 0 C3.63 1.65 7.26 3.3 11 5 C7 7 7 7 4.75 6.625 C4.1725 6.41875 3.595 6.2125 3 6 C3 5.34 3 4.68 3 4 C2.01 3.34 1.02 2.68 0 2 C0 1.34 0 0.68 0 0 Z " fill="#A7B5BC" transform="translate(286,135)"/>
<path d="M0 0 C3.36591866 1.44253657 5.51047079 3.33264727 8 6 C7.236875 5.79375 6.47375 5.5875 5.6875 5.375 C2.78114056 4.66608797 2.78114056 4.66608797 0 7 C0 4.69 0 2.38 0 0 Z " fill="#AAB9C0" transform="translate(370,336)"/>
<path d="M0 0 C1.32 0.66 2.64 1.32 4 2 C-0.455 3.485 -0.455 3.485 -5 5 C-5.33 3.68 -5.66 2.36 -6 1 C-5.34 1 -4.68 1 -4 1 C-4 1.66 -4 2.32 -4 3 C-3.34 3 -2.68 3 -2 3 C-2 2.34 -2 1.68 -2 1 C-1.34 0.67 -0.68 0.34 0 0 Z " fill="#ADBBC2" transform="translate(321,425)"/>
<path d="M0 0 C2.475 0.495 2.475 0.495 5 1 C5 1.99 5 2.98 5 4 C5.66 4.66 6.32 5.32 7 6 C6.01 6 5.02 6 4 6 C1.8125 3 1.8125 3 0 0 Z " fill="#B0BCC3" transform="translate(382,129)"/>
<path d="M0 0 C0.33 0.66 0.66 1.32 1 2 C-1.3125 4.5 -1.3125 4.5 -4 7 C-4.99 7 -5.98 7 -7 7 C-4.69 4.69 -2.38 2.38 0 0 Z " fill="#B7C2C9" transform="translate(112,116)"/>
<path d="M0 0 C0.33 0.99 0.66 1.98 1 3 C-0.8125 6.1875 -0.8125 6.1875 -3 9 C-3.66 9 -4.32 9 -5 9 C-3.50163895 5.88801935 -1.80066242 2.9465385 0 0 Z " fill="#B3C0C6" transform="translate(397,350)"/>
<path d="M0 0 C0.66 0.33 1.32 0.66 2 1 C2 1.66 2 2.32 2 3 C1.34 3 0.68 3 0 3 C0 3.66 0 4.32 0 5 C-1.65 4.67 -3.3 4.34 -5 4 C-3.35 2.68 -1.7 1.36 0 0 Z " fill="#A8B7BD" transform="translate(142,327)"/>
</svg>
